# xmcd CD database file generated by OrangeCD 4.2
#
# Track frame offsets:
#	150
#	22223
#	41508
#	68543
#	85084
#	103589
#	121255
#	181748
#	215441
#	228261
#	258282
#	278428
#	297097
#	317378
#
# Disc length: 4574 seconds
#
# Revision: 1
# Processed by: cddbd v1.4PL0 Copyright (c) Steve Scherf et al.
# Submitted via: OrangeCD 4.2
#
DISCID=b111dc0e
DTITLE=Butterfield Blues Band - Live At The Unicorn, Boston  1966
DYEAR=1900
DGENRE=Blues
TTITLE0=Look Over Yonders Wall
TTITLE1=Born In Chicago
TTITLE2=Love Her With A Feeling
TTITLE3=Get Out Of My Life Woman
TTITLE4=Don't Say No To Me
TTITLE5=One More Heartache
TTITLE6=Work Song
TTITLE7=Thank You Mr. Poobah
TTITLE8=Serve You Right To Suffer
TTITLE9=Got A Mind To Give Up Living
TTITLE10=Walking By Myself
TTITLE11=Baby Please Come Home
TTITLE12=World Is In An Uproar
TTITLE13=Got My Mojo Working
EXTD=
EXTT0=
EXTT1=
EXTT2=
EXTT3=
EXTT4=
EXTT5=
EXTT6=
EXTT7=
EXTT8=
EXTT9=
EXTT10=
EXTT11=
EXTT12=
EXTT13=
PLAYORDER=
